<?xml version="1.0" encoding="UTF-8"?>
<svg id="Layer_1" data-name="Layer 1" xmlns="http://www.w3.org/2000/svg" viewBox="0 0 277.01 345.69">
  <defs>
    <style>
      .cls-1 {
        fill: #111a29;
      }

      .cls-2 {
        fill: #243a5a;
      }

      .cls-2, .cls-3, .cls-4, .cls-5 {
        stroke: #111a29;
        stroke-miterlimit: 10;
      }

      .cls-3 {
        stroke-dasharray: 2.98 2.98;
      }

      .cls-3, .cls-4, .cls-5 {
        fill: none;
      }

      .cls-4 {
        stroke-dasharray: 3 3;
      }
    </style>
  </defs>
  <path class="cls-2" d="M45.25,24.26h182.65c11.6,0,21,9.4,21,21v250.46c0,11.23-9.1,20.33-20.33,20.33H45.25s-4-.42-6.27-2.23c-2.26-1.81-2.6-2.6-2.6-2.6l-1.25-282.73s1.67-3.36,10.12-4.23Z"/>
  <g>
    <line class="cls-5" x1="47.29" y1="24.26" x2="47.29" y2="25.76"/>
    <line class="cls-3" x1="47.29" y1="28.74" x2="47.29" y2="313.07"/>
    <line class="cls-5" x1="47.29" y1="314.55" x2="47.29" y2="316.05"/>
  </g>
  <g>
    <path class="cls-5" d="M35.26,31.6s.28-.43,1.09-1.02"/>
    <path class="cls-4" d="M39,29.19c1.45-.57,3.42-1.1,6.07-1.41h183.01c9.76,0,17.67,7.91,17.67,17.67v249.63c0,9.96-8.11,18.02-18.07,17.96l-181.6-1.16s-3.19,0-6.73-.94"/>
    <path class="cls-5" d="M37.9,310.5c-.47-.16-.94-.34-1.4-.53"/>
  </g>
  <line class="cls-5" x1="44.43" y1="24.26" x2="44.43" y2="315.93"/>
  <path class="cls-1" d="M89.77,24.26l8.01-6.24c1.11-.86,2.69-.74,3.66.28l2.43,2.56c.81.85.75,2.2-.13,2.99l-.47.42h-13.5Z"/>
</svg>