<?xml version="1.0" encoding="UTF-8"?>
<svg id="Layer_1" data-name="Layer 1" xmlns="http://www.w3.org/2000/svg" viewBox="0 0 277.01 345.69">
  <defs>
    <style>
      .cls-1 {
        fill: #f9f9fa;
        stroke-width: .75px;
      }

      .cls-1, .cls-2, .cls-3, .cls-4 {
        stroke: #d3d3d3;
        stroke-miterlimit: 10;
      }

      .cls-2 {
        stroke-dasharray: 2.98 2.98;
      }

      .cls-2, .cls-3, .cls-4 {
        fill: none;
      }

      .cls-3 {
        stroke-dasharray: 3 3;
      }

      .cls-5 {
        fill: #d3d3d3;
      }
    </style>
  </defs>
  <path class="cls-1" d="M42.66,30.44h182.65c11.6,0,21,9.4,21,21v250.46c0,11.23-9.1,20.33-20.33,20.33H42.66s-4-.42-6.27-2.23c-2.26-1.81-2.6-2.6-2.6-2.6l-1.25-282.73s1.67-3.36,10.12-4.23Z"/>
  <g>
    <line class="cls-4" x1="44.69" y1="30.44" x2="44.69" y2="31.94"/>
    <line class="cls-2" x1="44.69" y1="34.92" x2="44.69" y2="319.24"/>
    <line class="cls-4" x1="44.69" y1="320.73" x2="44.69" y2="322.23"/>
  </g>
  <g>
    <path class="cls-4" d="M32.67,37.78s.28-.43,1.09-1.02"/>
    <path class="cls-3" d="M36.41,35.37c1.45-.57,3.42-1.1,6.07-1.41h183.01c9.76,0,17.67,7.91,17.67,17.67v249.63c0,9.96-8.11,18.02-18.07,17.96l-181.6-1.16s-3.19,0-6.73-.94"/>
    <path class="cls-4" d="M35.3,316.68c-.47-.16-.94-.34-1.4-.53"/>
  </g>
  <line class="cls-4" x1="41.83" y1="30.44" x2="41.83" y2="322.11"/>
  <path class="cls-5" d="M87.18,30.44l8.01-6.24c1.11-.86,2.69-.74,3.66.28l2.43,2.56c.81.85.75,2.2-.13,2.99l-.47.42h-13.5Z"/>
</svg>