<?xml version="1.0" encoding="UTF-8"?>
<svg id="Layer_1" data-name="Layer 1" xmlns="http://www.w3.org/2000/svg" viewBox="0 0 515.48 99.87">
  <path d="M190.95,91.64c1.06,2.95-1.43,5.79-3.92,6.82-5.1,2.09-11.05,1.56-15.42-1.93-4.99-3.99-7.34-10.3-6.81-16.66.88-10.56,3.81-20.07,6.92-30.09l13.61-43.84c.97-3.12,3.61-5.27,6.91-5.82,1.38-.23,3.51.59,4.28,1.47,1.01,1.15,1.6,3.53,1.06,5.27l-17.84,58.21c-1.48,4.84-2.06,9.75-1.67,14.7.78,9.9,11.78,8.87,12.86,11.88Z"/>
  <path d="M224.65,88.15c13.14-1.84,16.22-16.22,25.39-11.01,1.35.76,1.49,3.46.62,4.82-5.98,9.38-15.39,14.89-26.23,16.76-5.22.9-10.29,1.28-15.43.19-4.3-.91-6.82-3.79-9.33-6.92-3.85-4.8-5.59-9.86-4.84-15.99,2.5-20.44,16.4-41.36,37.53-46.26,9.32-2.16,19.35.51,25.18,8.24,4.96,6.56,5.02,14.99,2.56,22.47-1.05,3.19-2.97,6.03-6.74,6.03h-16.1s-23.46.97-23.46.97c-3.47.14-4.93,2.47-4.87,5.67.14,8.5,6.83,16.28,15.72,15.04ZM242.56,54.8c1.79,0,3.86-.33,5.04-1.14,1.05-4.32-1.13-9.08-5.13-11.03-12.63-6.15-27.81,9.09-25.79,11.23.37.39,1.67,1.05,2.26,1.04l23.62-.1Z"/>
  <path d="M280.46,85.79c7.8,4.98,17.43.1,23.5-5.49,2.86-2.64,7.38-3.08,9.87.53,1.01,1.46.19,4.32-1.03,5.78-5.63,6.75-13.41,10.77-22.2,11.93-5.27.7-10.73,1.88-16.04.38-8.79-2.49-14.74-11.67-14.13-20.87,1.07-16.13,9.02-30.21,21.02-40.64,9.45-8.21,22.1-10.97,33.88-6.4,5.59,2.17,14.27,10.3,10.72,17.09-1.04,2-3.38,3.44-5.83,3.89-3.84.7-7.01-1.33-7.76-5.21-1.12-5.8-10.4-6.61-14.54-5.29-11.49,3.67-19.56,12.92-22.38,24.58-3.45,6.84-1.9,15.36,4.93,19.72Z"/>
  <path d="M477.75,90.89l-16.1,7.07c-6.79,2.98-15.3,2.48-21.49-1.69-10.38-6.99-13.3-19.97-9.17-31.25,3.89-10.62,9.81-19.62,18.55-26.8,10.31-8.45,28.46-13.98,39.83-4.37.82.7,3.57,1.36,3.87.48l8.59-27.94c1.07-3.47,4.55-6,7.91-6.37,1.69-.19,3.74.44,4.59,1.41.76.87,1.44,3.37,1.02,4.76l-16.5,54.06c-1.74,5.69-2.77,11.23-3.28,17.12-.9,10.3,10.11,10.23,7.35,15.27-.83,1.52-2.37,3.67-3.71,4.37-4.84,2.56-10.01.64-13-3.44-1.85-2.53-5.23-4.11-8.45-2.69ZM461.11,86.56c11.54-3.74,18.69-13.53,21.37-24.8,1.27-5.33,2.37-10.12-.95-14.95-2.61-3.79-6.51-6-11.46-5.33-15.17,2.05-23.98,13.57-26.2,28.11-.79,5.15.38,10.32,3.72,14.27s8.45,4.34,13.52,2.69Z"/>
  <path d="M393.13,88.14c12.96-1.86,14.36-14.03,24.08-11.66,1.96.48,3.25,3.08,2.05,5.1-5.7,9.53-15.43,15.24-26.31,17.11-8.74,1.5-19.89,2.22-24.64-6.83-4.35-4.3-5.69-9.94-5.03-15.82,1.16-10.3,4.91-19.24,10.82-27.66,6.47-9.22,15.54-16.06,26.73-18.65,9.31-2.16,19.3.55,25.13,8.23,4.97,6.55,5.03,15,2.56,22.49-1.03,3.13-2.96,6.01-6.68,6.01l-16.11.02-23.46.95c-3.49.14-4.97,2.46-4.92,5.68.13,8.52,6.85,16.31,15.78,15.03ZM410.98,54.8c1.83,0,3.84-.33,5.04-1.14,1.01-4.3-1.1-9.06-5.09-11.01-12.69-6.2-27.94,9.15-25.81,11.24.39.38,1.71,1.02,2.25,1.02l23.61-.11Z"/>
  <path d="M355.8,90.76c1.08,4-3.08,8.17-6.25,8.77-4.92.94-8.65-1.1-10.78-5.49-1.42-2.93-3.74-6.29-3.73-9.78.03-8.9,2.29-17.13,4.92-25.48l3.85-12.23c1.41-4.47-7.19-1.98-11.29-4.35-.51-3.21.47-7.37,3.35-9.24,3.23-2.09,11.63,1.27,13.38-4.46l6.07-19.83c1.01-3.31,2.77-5.96,6.47-6.96,1.39-.38,3.65.13,4.59.95,1.38,1.19,2.12,3.66,1.59,5.44l-6.41,21.61c-1.75,5.9,7.56.94,11.04,4.4-.19,2.84-2.04,6.36-4.55,8.19s-9.68-.85-11.15,3.01c-3.92,10.31-6.83,20.6-8.74,31.43-1.06,6.02,2.43,10.8,7.62,14.03Z"/>
  <g>
    <path d="M128.46,62.6c-11.31,23.57-17.69,35.21-45.38,36.96-14,.88-22.72-14.24-20.49-25.96,4.34-22.79,24.19-49.44,50.48-43.59,6.39,1.42,11.28,6.12,15.01,11.16,1.22,7.32,1.23,14.07.38,21.42ZM115.47,63.46c1.91-6.77,1.01-13.74-2.39-19.75-4.31-3.44-9.72-3.79-15.07-1.75-14.13,5.37-23.23,20.09-22.15,35.26.28,3.91,2.66,7.65,6.13,9.14,16.27,6.98,29.41-8.42,33.49-22.9Z"/>
    <path d="M20.01,85.78c3.78,2.45,8.92,2.44,13.12,1.05,4.1-1.35,7.47-3.81,10.62-6.7,2.86-2.62,7.43-2.79,9.76.84.86,1.35.13,4.11-1.02,5.5-5.44,6.6-13.03,10.71-21.57,11.95-5.29.76-10.71,1.9-16.1.65C5.98,97.03-.43,87.92.02,78.64c.81-16.52,9.1-31.08,21.49-41.61,9.54-8.11,22.4-10.62,34.05-5.74,5.2,2.18,13.64,10.11,9.96,17.01-.98,1.84-3.48,3.37-6.05,3.73-3.67.5-6.66-1.48-7.36-5.09-1.21-6.27-10.88-7.35-18-4.21-10.09,4.47-15.87,12.9-19.25,23.15-2.37,7.18-2.3,15.07,5.15,19.9Z"/>
    <path d="M153.86,91.59c1.1,2.81-1.21,5.6-3.5,6.66-5,2.31-11.02,1.89-15.47-1.47-5.22-3.94-7.68-10.39-7.15-16.89.87-10.73,3.9-20.38,7.07-30.59l13.31-42.92c1.02-3.28,3.39-5.63,6.99-6.25,1.35-.23,3.51.55,4.33,1.43,1.05,1.13,1.61,3.6,1.07,5.39l-17.82,58.15c-2.65,8.65-4.27,21.67,7.23,24.15,1.05.23,3.52,1.26,3.95,2.35Z"/>
  </g>
</svg>